<svg width="18" height="18" viewBox="0 0 18 18" fill="none" xmlns="http://www.w3.org/2000/svg">
<path d="M2.31458 2.40848C1.88593 2.9443 1.6 3.59477 1.6 4.16667C1.6 4.6269 1.24182 5 0.8 5C0.358176 5 0 4.6269 0 4.16667C0 3.07189 0.514072 2.0557 1.08542 1.34152C1.37722 0.976775 1.70818 0.659442 2.04374 0.426417C2.35665 0.209117 2.76681 0 3.2 0C3.64182 0 4 0.3731 4 0.833333C4 1.29357 3.64182 1.66667 3.2 1.66667C3.20408 1.66667 3.20667 1.66667 3.20672 1.66698C3.20676 1.6673 3.2047 1.66794 3.20054 1.66925C3.17714 1.6766 3.08728 1.70482 2.93126 1.81317C2.74182 1.94472 2.52278 2.14823 2.31458 2.40848Z" fill="#1994DC"/>
<path fill-rule="evenodd" clip-rule="evenodd" d="M8.99999 0C9.49092 0 9.88888 0.395047 9.88888 0.882353V0.943562C13.18 1.40043 15.7199 4.35924 15.7199 7.94118V8.889C15.7199 10.0115 15.9238 11.1237 16.3207 12.166L16.9391 13.7899C17.1598 14.3696 16.7534 15 16.1592 15H1.84082C1.24655 15 0.840205 14.3696 1.06091 13.7899L1.67932 12.166C2.07619 11.1237 2.2801 10.0115 2.2801 8.889V7.94118C2.2801 4.35924 4.81996 1.40043 8.1111 0.943562V0.882353C8.1111 0.395047 8.50906 0 8.99999 0ZM3.96008 7.94118C3.96008 5.01731 6.21652 2.64706 8.99999 2.64706C11.7835 2.64706 14.0399 5.01731 14.0399 7.94118V8.889C14.0399 10.236 14.2846 11.5706 14.7609 12.8214L14.9185 13.2353H3.0815L3.23913 12.8214C3.71538 11.5706 3.96008 10.236 3.96008 8.889V7.94118Z" fill="#1994DC"/>
<path d="M8 16C7.4477 16 7 16.4477 7 17C7 17.5523 7.4477 18 8 18H10C10.5523 18 11 17.5523 11 17C11 16.4477 10.5523 16 10 16H8Z" fill="#1994DC"/>
<path d="M13.7243 1.65683C14.3719 1.8065 15.0181 2.26766 15.4894 2.84402C15.7183 3.12397 15.8795 3.40008 15.9686 3.62726C16.0419 3.81436 16.0455 3.91317 16.0464 3.9389C16.0466 3.94348 16.0467 3.94574 16.0471 3.94578C16.0474 3.94582 16.0481 3.94371 16.0493 3.93955C15.9098 4.38906 16.2192 4.85063 16.7403 4.97108C17.2615 5.09153 17.7972 4.82475 17.9369 4.37523C18.0737 3.93448 17.9666 3.46243 17.8195 3.08719C17.6616 2.6848 17.4069 2.265 17.0861 1.87267C16.4579 1.10444 15.4697 0.315445 14.23 0.0289218C13.7088 -0.0915289 13.1732 0.175242 13.0336 0.62478C12.8939 1.07431 13.2031 1.53638 13.7243 1.65683Z" fill="#1994DC"/>
</svg>
