<svg width="18" height="18" viewBox="0 0 18 18" fill="none" xmlns="http://www.w3.org/2000/svg">
<path fill-rule="evenodd" clip-rule="evenodd" d="M15.6506 4.22315C15.4533 4.33595 15.3089 4.52247 15.2491 4.74171C15.1893 4.96095 15.219 5.19496 15.3317 5.39229C15.9592 6.49097 16.2881 7.73478 16.2857 9C16.2857 10.441 15.8584 11.8496 15.0578 13.0477C14.2573 14.2459 13.1194 15.1797 11.7881 15.7311C10.4568 16.2826 8.99192 16.4268 7.57863 16.1457C6.16534 15.8646 4.86715 15.1707 3.84822 14.1518C2.8293 13.1329 2.1354 11.8347 1.85428 10.4214C1.57316 9.00809 1.71744 7.54317 2.26888 6.21188C2.82032 4.88059 3.75414 3.74272 4.95227 2.94216C6.1504 2.14159 7.55902 1.71429 9 1.71429C10.2883 1.71429 11.526 2.04858 12.6171 2.67429C12.7148 2.73029 12.8225 2.76651 12.9342 2.78088C13.0458 2.79525 13.1592 2.78749 13.2678 2.75804C13.3765 2.72859 13.4783 2.67803 13.5674 2.60924C13.6565 2.54046 13.7311 2.4548 13.7871 2.35715C13.8431 2.2595 13.8794 2.15178 13.8937 2.04014C13.9081 1.92849 13.9003 1.81511 13.8709 1.70647C13.8414 1.59782 13.7909 1.49604 13.7221 1.40694C13.6533 1.31783 13.5676 1.24315 13.47 1.18715C12.1095 0.407139 10.5682 -0.0022076 9 8.95409e-06C4.02943 8.95409e-06 0 4.02944 0 9C0 13.9706 4.02943 18 9 18C13.9706 18 18 13.9706 18 9C18 7.41601 17.5886 5.88858 16.8197 4.54201C16.7069 4.34473 16.5204 4.20033 16.3012 4.14054C16.0819 4.08074 15.8479 4.11046 15.6506 4.22315ZM8.14286 10.3594L11.8226 6.67972C11.9016 6.59785 11.9962 6.53256 12.1008 6.48763C12.2054 6.44271 12.3178 6.41907 12.4317 6.41808C12.5455 6.41709 12.6583 6.43878 12.7637 6.48187C12.869 6.52497 12.9647 6.58862 13.0452 6.6691C13.1257 6.74958 13.1893 6.84528 13.2324 6.95062C13.2755 7.05596 13.2972 7.16882 13.2962 7.28263C13.2952 7.39645 13.2716 7.50892 13.2267 7.61349C13.1817 7.71807 13.1164 7.81265 13.0346 7.89172L8.74886 12.1774C8.6695 12.2574 8.57509 12.3209 8.47109 12.3642C8.36708 12.4075 8.25552 12.4298 8.14286 12.4298C8.03019 12.4298 7.91864 12.4075 7.81463 12.3642C7.71062 12.3209 7.61622 12.2574 7.53686 12.1774L4.96543 9.606C4.88356 9.52694 4.81826 9.43235 4.77334 9.32778C4.72842 9.2232 4.70477 9.11073 4.70379 8.99692C4.7028 8.88311 4.72448 8.77024 4.76758 8.6649C4.81068 8.55956 4.87432 8.46386 4.9548 8.38338C5.03528 8.3029 5.13099 8.23926 5.23633 8.19616C5.34166 8.15306 5.45453 8.13137 5.56834 8.13236C5.68215 8.13335 5.79463 8.157 5.8992 8.20192C6.00378 8.24684 6.09836 8.31214 6.17743 8.394L8.14286 10.3594Z" fill="#1F3948"/>
</svg>
