<svg width="19" height="18" viewBox="0 0 19 18" fill="none" xmlns="http://www.w3.org/2000/svg">
<path d="M18.6485 3.89343L11.8628 0.0857279C11.7626 0.0294891 11.6501 0 11.5357 0C11.4214 0 11.3089 0.0294891 11.2087 0.0857279L4.42298 3.89343C4.31659 3.95319 4.22787 4.04099 4.16608 4.14767C4.10429 4.25434 4.07169 4.37598 4.07169 4.49989C4.07169 4.6238 4.10429 4.74544 4.16608 4.85212C4.22787 4.95879 4.31659 5.04659 4.42298 5.10635L10.8572 8.71675V16.1376L8.79704 14.9815L8.1429 16.1937L11.2087 17.9141C11.3088 17.9704 11.4214 18 11.5357 18C11.6501 18 11.7627 17.9704 11.8628 17.9141L18.6485 14.1064C18.7549 14.0466 18.8437 13.9589 18.9055 13.8522C18.9674 13.7455 19 13.6238 19 13.4999V4.49989C19 4.37596 18.9674 4.25431 18.9055 4.14763C18.8437 4.04095 18.7549 3.95316 18.6485 3.89343ZM11.5357 1.48281L16.9134 4.49989L11.5357 7.51698L6.15808 4.49989L11.5357 1.48281ZM17.6429 13.0908L12.2143 16.1369V8.71605L17.6429 5.66989V13.0908Z" fill="black"/>
<path d="M5.42855 8.9999H0V7.61529H5.42855V8.9999Z" fill="black"/>
<path d="M6.78569 14.5384H1.35714V13.1538H6.78569V14.5384Z" fill="black"/>
<path d="M8.14283 11.7691H2.71428V10.3845H8.14283V11.7691Z" fill="black"/>
</svg>
